<?xml version="1.0" encoding="utf-8"?>
<!-- Generator: Adobe Illustrator 21.0.0, SVG Export Plug-In . SVG Version: 6.00 Build 0)  -->
<svg version="1.1" id="Layer_1" xmlns="http://www.w3.org/2000/svg" xmlns:xlink="http://www.w3.org/1999/xlink" x="0px" y="0px"
	 viewBox="0 0 144.6 105.7" style="enable-background:new 0 0 144.6 105.7;" xml:space="preserve">
<style type="text/css">
	.st0{fill:none;}
	.st1{fill:#E12727;}
	.st2{fill:#E65D42;}
	.st3{fill:#CC2322;}
	.st4{fill:#39B54A;}
	.st5{fill:#33A544;}
</style>
<rect class="st0" width="139" height="105.7"/>
<g>
	<g>
		<g>
			<g>
				<path class="st1" d="M36,40.2c-1.3-0.6-0.8-2.5,0.6-2.4c6.8,0.5,15.2-0.9,20.3-2.6c6-2,10.6-7.1,14.1-11.4
					c2.3-2.7,6.5-9.3,8.7-12.1c3.2-3.8,11-7.3,15.6,0.6c3,5-2.4,13.1-5,16.1c-7.3,8.4-19,16.9-30.8,16.6C48.7,44.7,41,42.4,36,40.2z
					"/>
			</g>
			<g>
				<g>
					<path class="st2" d="M61.8,37c5.3-2.1,10.7-6,15-11.2c1.2-1.4,2.8-3.7,4.5-6.1c1.6-2.3,3.2-4.7,4.3-5.9
						c2.8-3.2,4.5-3.3,4.5-3.3c-3.2-1.3-6.8,1.1-8.3,2.9c-1.1,1.3-2.7,3.6-4.3,5.9c-1.7,2.4-3.3,4.7-4.5,6.1
						C63.2,37.8,50.2,38.7,47,38.5C51.6,39.2,56.9,38.9,61.8,37z"/>
				</g>
			</g>
			<g>
				<path class="st3" d="M90.4,28.5c2.6-3,8-11.1,5-16.1c-1.3-2.2-2.8-3.5-4.4-4.1l0,0c4.9,3.3-1.1,13.7-8.1,21.1
					C71,41.7,51,45.5,35.3,38.8c-0.1,0.5,0.1,1.1,0.7,1.4c5,2.2,12.7,4.5,23.6,4.9C71.4,45.5,83.1,36.9,90.4,28.5z"/>
			</g>
		</g>
		<path class="st4" d="M93,14.9c0,0,0-1.5-0.8-2.4c-0.8-0.9-0.8-2.2-0.8-2.2c-0.5,2.3-4.7,1.2-4.7,1.2s0.8-0.4,1-1.6
			c0.3-1.2,0.9-1.4,0.9-1.4s0,0-1.6-0.4c-1.6-0.4-2.3-1.6-2.3-1.6s0.7,0.4,2.1,0.4c2.1-0.1,3.4-0.3,5.8,0.6c2.1,0.8,4.4,3.5,4.3,7.2
			c-0.2-0.6-1.1-0.9-1.8-1.5c-0.4-0.4-0.9-1.3-0.9-1.3S94.4,13.3,93,14.9z"/>
		<path class="st5" d="M96.8,14.7c0.1-3.4-1.9-6-3.8-7l0,0c0,0,0.1-2.1,2.2-3.2c1.5-0.8,2.4-0.7,2.4-0.7s0.9-0.7-0.3-1.5
			c-4.5,0.3-5.3,5-5.3,5c0,0,0,0,0,0c0,3.2-3.6,3.2-3.6,3.2s-0.3-1.1,0.2-2c0,0-0.1,0-0.3,0.2c-0.2,0.2-0.4,0.5-0.6,1.2
			c-0.3,1.2-1,1.6-1,1.6s4.1,1.1,4.7-1.2c0,0,0,1.2,0.8,2.2c0.8,0.9,0.8,2.4,0.8,2.4c1.4-1.6,1.2-3,1.2-3s0.4,0.9,0.9,1.3
			C95.8,13.9,96.7,14.2,96.8,14.7z"/>
	</g>
	<g>
		<g>
			<g>
				<path class="st1" d="M36.3,52.8c-1.5-1.1-0.3-3.4,1.4-2.9c8.6,2.5,19.8,3,26.7,2.1c8.2-1,15.5-6.2,21.2-10.8
					c3.6-2.9,10.8-10.2,14.5-13.1c5.1-4,16-6.4,19.9,5c2.5,7.3-6.6,16.2-10.8,19.3c-11.7,8.9-28.9,16.6-44,12.9
					C51.4,62,42.1,57,36.3,52.8z"/>
			</g>
			<g>
				<g>
					<path class="st2" d="M70.2,55.6c7.4-1.2,15.3-4.8,22.2-10.3c1.9-1.5,4.6-4,7.4-6.7c2.6-2.5,5.3-5.1,7.1-6.4
						c4.5-3.4,6.6-3.1,6.6-3.1c-3.8-2.5-9-0.4-11.4,1.5c-1.7,1.4-4.5,3.9-7.1,6.4c-2.8,2.7-5.5,5.1-7.4,6.7
						c-15.8,13.3-32.8,10.8-36.8,9.8C56.5,55.7,63.4,56.8,70.2,55.6z"/>
				</g>
			</g>
			<g>
				<path class="st3" d="M109.2,52.5c4.2-3.2,13.3-12,10.8-19.3c-1.1-3.1-2.6-5.2-4.5-6.5l0,0c5.4,5.5-5.1,17.3-16.1,24.8
					c-18.7,12.7-45.3,12.2-63.6-0.6c-0.3,0.6-0.2,1.4,0.5,1.9c5.8,4.2,15,9.2,28.9,12.6C80.3,69.1,97.6,61.3,109.2,52.5z"/>
			</g>
		</g>
		<path class="st4" d="M116.2,35.7c0,0,0.4-1.9-0.4-3.3c-0.8-1.4-0.4-3-0.4-3c-1.3,2.8-6.3,0.3-6.3,0.3s1.1-0.3,1.7-1.8
			c0.7-1.5,1.5-1.5,1.5-1.5s0,0-2-0.9c-2-0.9-2.6-2.7-2.6-2.7s0.8,0.7,2.6,1c2.7,0.5,4.5,0.6,7.3,2.4c2.5,1.6,4.7,5.7,3.6,10.4
			c0-0.7-1.1-1.4-1.9-2.4c-0.5-0.6-0.8-1.9-0.8-1.9S118.4,34,116.2,35.7z"/>
		<path class="st5" d="M121.2,36.6c1-4.3-0.8-8.1-3-10l0,0c0,0,0.8-2.7,3.7-3.5c2.1-0.6,3.3-0.2,3.3-0.2s1.3-0.6,0-2
			c-5.8-0.9-8.2,5-8.2,5c0,0,0,0,0,0c-0.8,4.1-5.5,3.1-5.5,3.1s-0.1-1.5,0.8-2.5c0,0-0.2,0-0.4,0.2c-0.3,0.2-0.7,0.5-1.1,1.4
			c-0.7,1.5-1.7,1.8-1.7,1.8s5,2.5,6.3-0.3c0,0-0.4,1.6,0.4,3c0.8,1.4,0.4,3.3,0.4,3.3c2.2-1.7,2.3-3.5,2.3-3.5s0.3,1.3,0.8,1.9
			C120.1,35.2,121.1,35.8,121.2,36.6z"/>
	</g>
	<g>
		<path class="st5" d="M12.3,102.3c-1.5-0.7-2.7-1.7-3.6-3c-0.8-1.3-1.2-2.7-1.2-4.4c0-1.4,0.3-2.7,0.9-3.8c0.6-1.2,1.4-2.1,2.4-2.7
			c1-0.7,2.1-1,3.3-1c1.1,0,2.1,0.3,2.8,0.8c0.8,0.6,1.2,1.3,1.4,2.3c-1.7,0-3,0.4-4,1.3c-1,0.9-1.5,2.1-1.5,3.6
			c0,1.4,0.4,2.5,1.2,3.3c0.8,0.8,1.9,1.2,3.3,1.2c1.7,0,3.1-0.6,4.2-1.7c1.1-1.1,1.7-2.6,1.7-4.3c0-1.5-0.4-2.9-1.2-4.3
			c-0.8-1.3-2.1-3-3.7-4.9c-1.7-2-3-3.7-3.9-5.1c-0.9-1.4-1.3-3-1.3-4.7c0-1.7,0.5-3.2,1.4-4.5c0.9-1.3,2.2-2.4,3.8-3.1
			s3.5-1.2,5.5-1.2c2.6,0,4.7,0.6,6.2,1.8c1.6,1.2,2.3,2.8,2.3,4.9c0,1.3-0.3,2.4-1,3.3c-0.7,0.8-1.6,1.2-2.6,1.2
			c-1.2,0-2.2-0.5-2.9-1.5c0.6-0.4,1.1-1,1.4-1.8c0.4-0.7,0.5-1.5,0.5-2.3c0-1-0.3-1.8-0.9-2.4c-0.6-0.6-1.4-0.9-2.5-0.9
			c-1.3,0-2.3,0.5-3.1,1.4C20.4,70.8,20,72,20,73.4c0,1.3,0.4,2.5,1.1,3.6c0.7,1.1,1.9,2.5,3.5,4.2c1.3,1.4,2.3,2.6,3.1,3.6
			c0.8,1,1.5,2.1,2,3.4c0.6,1.3,0.8,2.7,0.8,4.2c0,2-0.6,3.9-1.7,5.6c-1.1,1.7-2.7,3-4.7,3.9s-4.2,1.4-6.6,1.4
			C15.6,103.4,13.8,103,12.3,102.3z"/>
		<path class="st5" d="M34.6,100.9c-1.4-1.2-2.1-3.1-2.1-5.8c0-2.2,0.4-4.6,1.3-7.3c0.9-2.6,2.3-4.9,4.2-6.9c2-1.9,4.4-2.9,7.5-2.9
			c3.8,0,5.8,2.2,6.1,6.5c0.7-0.2,1.3-0.6,1.9-1.2c0.5-0.6,1.1-1.3,1.5-2.1h1.5c-0.9,1.7-1.6,3.1-2.3,4.1c-0.7,1-1.6,1.8-2.6,2.4
			c-0.2,3-0.8,5.6-1.8,7.9c-1,2.3-2.4,4-4.1,5.3c-1.7,1.2-3.5,1.8-5.5,1.8C37.8,102.7,36,102.1,34.6,100.9z M45.4,95.5
			c1-1.9,1.7-4.3,2.1-7.1c-0.8-0.3-1.2-1-1.2-2.2c0-1.2,0.4-2.1,1.3-2.5c-0.1-1-0.2-1.7-0.5-2.1C47,81.2,46.5,81,45.9,81
			c-1.1,0-2.1,0.8-3,2.3c-1,1.5-1.7,3.4-2.3,5.5c-0.6,2.2-0.9,4.1-0.9,5.7c0,1.5,0.2,2.6,0.5,3.1c0.4,0.5,1,0.8,1.9,0.8
			C43.3,98.4,44.4,97.4,45.4,95.5z"/>
		<path class="st5" d="M80,101.2c-0.9-1-1.4-2.3-1.4-3.9c0-0.7,0.1-1.4,0.2-2.3c0.2-0.8,0.3-1.7,0.5-2.5c0.2-0.8,0.3-1.3,0.4-1.5
			c0.3-1.1,0.5-2.2,0.7-3.3c0.2-1.1,0.3-2,0.3-2.6c0-1.6-0.6-2.4-1.7-2.4c-0.8,0-1.6,0.4-2.2,1.2c-0.6,0.8-1.2,1.9-1.5,3.2
			l-3.3,15.4h-6.9l7-32.6l7.1-1L76.6,81c1.6-1.8,3.5-2.7,5.6-2.7c1.6,0,2.9,0.4,3.9,1.3c1,0.9,1.4,2.3,1.4,4.1c0,0.9-0.1,2-0.3,3.1
			c-0.2,1.1-0.5,2.5-1,4.2c-0.3,1-0.5,2-0.7,2.9c-0.2,0.9-0.3,1.7-0.3,2.2c0,0.6,0.1,1.1,0.4,1.5c0.3,0.4,0.8,0.5,1.5,0.5
			c1,0,1.7-0.3,2.3-1c0.6-0.7,1.2-1.8,1.7-3.2h2c-1.2,3.5-2.6,5.9-4.1,7.1c-1.6,1.2-3.2,1.8-4.8,1.8C82.4,102.8,80.9,102.3,80,101.2
			z"/>
		<path class="st5" d="M92.6,100.9c-1.4-1.2-2.1-3.1-2.1-5.8c0-2.2,0.4-4.6,1.3-7.2c0.9-2.7,2.3-5,4.3-6.9c2-1.9,4.5-2.9,7.5-2.9
			c4.1,0,6.1,2.6,6.1,7.7v0c0.1,0,0.3,0,0.5,0c1.1,0,2.3-0.3,3.6-0.8c1.4-0.6,2.6-1.2,3.7-2l0.4,1.3c-0.9,1-2.1,1.8-3.6,2.5
			c-1.5,0.7-3.1,1.2-4.9,1.5c-0.3,2.9-0.9,5.5-2,7.6c-1.1,2.2-2.4,3.9-4.1,5c-1.7,1.2-3.5,1.8-5.4,1.8
			C95.9,102.7,94,102.1,92.6,100.9z M102.4,97c0.8-0.9,1.4-2.1,2-3.6c0.6-1.5,1-3.2,1.2-5.1c-0.9-0.2-1.3-0.9-1.3-2
			c0-1.3,0.5-2.2,1.5-2.6c-0.1-1.1-0.2-1.8-0.5-2.2c-0.3-0.4-0.7-0.6-1.3-0.6c-1.1,0-2.1,0.8-3.1,2.3c-1,1.5-1.8,3.4-2.4,5.5
			c-0.6,2.1-0.9,4-0.9,5.7c0,1.5,0.2,2.6,0.5,3.1c0.4,0.5,1,0.8,1.9,0.8C100.9,98.4,101.7,97.9,102.4,97z"/>
		<path class="st5" d="M113.2,101.3c-0.8-1-1.2-2.3-1.2-3.9c0-0.8,0.1-1.7,0.3-2.5l3.1-14.4h-1.6l0.4-1.9h1.6l1.4-6.6l7.1-1
			c-0.3,1.2-0.4,1.9-0.5,2.2c-0.2,0.9-0.6,2.7-1.2,5.4h2.9l-0.4,1.9h-2.9l-3.1,14.4c-0.2,0.7-0.2,1.3-0.2,1.7c0,1.2,0.6,1.7,1.7,1.7
			c0.6,0,1,0,1.2-0.1c-0.6,1.9-1.4,3.1-2.3,3.7c-0.9,0.6-1.8,1-2.8,1C115.2,102.8,114,102.3,113.2,101.3z"/>
		<path class="st3" d="M128.2,101.6c-0.8-0.8-1.1-1.7-1.1-2.7c0-1.1,0.4-2,1.1-2.7c0.8-0.7,1.7-1.1,2.7-1.1s2,0.4,2.7,1.1
			c0.7,0.7,1.1,1.6,1.1,2.7c0,1.1-0.4,2-1.1,2.7c-0.7,0.8-1.6,1.1-2.7,1.1S129,102.4,128.2,101.6z M133.9,67.4l7.4-1l-7,25h-4.1
			L133.9,67.4z"/>
	</g>
</g>
</svg>
